<mxfile modified="2021-05-07T04:47:45.106Z" host="app.diagrams.net" agent="5.0 (Macintosh; Intel Mac OS X 10_15_5) AppleWebKit/537.36 (KHTML, like Gecko) Chrome/90.0.4430.93 Safari/537.36" etag="doXeGCGagf4wTXK6BOLt" version="14.6.10" type="github">
  <diagram id="Ht1M8jgEwFfnCIfOTk4-" name="Page-1">
    <mxGraphModel dx="697" dy="1422" grid="1" gridSize="10" guides="1" tooltips="1" connect="1" arrows="1" fold="1" page="1" pageScale="1" pageWidth="1169" pageHeight="827" math="0" shadow="0">
      <root>
        <mxCell id="0" />
        <mxCell id="1" parent="0" />
        <mxCell id="elFsV576toSTreKgKbLv-68" value="VPC" style="outlineConnect=0;gradientColor=none;html=1;whiteSpace=wrap;fontSize=12;fontStyle=0;shape=mxgraph.aws4.group;grIcon=mxgraph.aws4.group_vpc;strokeColor=#879196;fillColor=none;verticalAlign=top;align=left;spacingLeft=30;fontColor=#879196;dashed=0;" vertex="1" parent="1">
          <mxGeometry x="326.5" y="480" width="493.5" height="500" as="geometry" />
        </mxCell>
        <mxCell id="elFsV576toSTreKgKbLv-33" value="" style="rounded=0;whiteSpace=wrap;html=1;strokeColor=#FF3333;fillColor=none;" vertex="1" parent="1">
          <mxGeometry x="360" y="752" width="400" height="172" as="geometry" />
        </mxCell>
        <mxCell id="elFsV576toSTreKgKbLv-2" value="" style="points=[[0,0,0],[0.25,0,0],[0.5,0,0],[0.75,0,0],[1,0,0],[0,1,0],[0.25,1,0],[0.5,1,0],[0.75,1,0],[1,1,0],[0,0.25,0],[0,0.5,0],[0,0.75,0],[1,0.25,0],[1,0.5,0],[1,0.75,0]];outlineConnect=0;fontColor=#232F3E;gradientColor=#945DF2;gradientDirection=north;fillColor=#5A30B5;strokeColor=#ffffff;dashed=0;verticalLabelPosition=bottom;verticalAlign=top;align=center;html=1;fontSize=12;fontStyle=0;aspect=fixed;shape=mxgraph.aws4.resourceIcon;resIcon=mxgraph.aws4.route_53;" vertex="1" parent="1">
          <mxGeometry x="510" y="106" width="100" height="100" as="geometry" />
        </mxCell>
        <mxCell id="elFsV576toSTreKgKbLv-3" value="" style="outlineConnect=0;fontColor=#232F3E;gradientColor=none;fillColor=#5A30B5;strokeColor=none;dashed=0;verticalLabelPosition=bottom;verticalAlign=top;align=center;html=1;fontSize=12;fontStyle=0;aspect=fixed;pointerEvents=1;shape=mxgraph.aws4.application_load_balancer;" vertex="1" parent="1">
          <mxGeometry x="521" y="318" width="78" height="78" as="geometry" />
        </mxCell>
        <mxCell id="elFsV576toSTreKgKbLv-59" value="" style="edgeStyle=orthogonalEdgeStyle;rounded=0;orthogonalLoop=1;jettySize=auto;html=1;entryX=0.5;entryY=0;entryDx=0;entryDy=0;entryPerimeter=0;" edge="1" parent="1" source="elFsV576toSTreKgKbLv-9" target="elFsV576toSTreKgKbLv-2">
          <mxGeometry relative="1" as="geometry">
            <mxPoint x="560" y="50" as="sourcePoint" />
            <mxPoint x="560" y="101" as="targetPoint" />
          </mxGeometry>
        </mxCell>
        <mxCell id="elFsV576toSTreKgKbLv-9" value="devices" style="outlineConnect=0;gradientColor=none;fontColor=#545B64;strokeColor=none;fillColor=#879196;dashed=0;verticalLabelPosition=bottom;verticalAlign=top;align=center;html=1;fontSize=12;fontStyle=0;aspect=fixed;shape=mxgraph.aws4.illustration_devices;pointerEvents=1" vertex="1" parent="1">
          <mxGeometry x="510" y="-60" width="100" height="73" as="geometry" />
        </mxCell>
        <mxCell id="elFsV576toSTreKgKbLv-61" value="&lt;font style=&quot;font-size: 14px&quot;&gt;HTTP or HTTPS&lt;/font&gt;" style="text;html=1;align=center;verticalAlign=middle;resizable=0;points=[];autosize=1;strokeColor=none;" vertex="1" parent="1">
          <mxGeometry x="570" y="60" width="120" height="20" as="geometry" />
        </mxCell>
        <mxCell id="elFsV576toSTreKgKbLv-62" value="" style="endArrow=classic;html=1;rounded=0;edgeStyle=orthogonalEdgeStyle;exitX=0.5;exitY=1;exitDx=0;exitDy=0;exitPerimeter=0;" edge="1" parent="1" source="elFsV576toSTreKgKbLv-2" target="elFsV576toSTreKgKbLv-3">
          <mxGeometry width="50" height="50" relative="1" as="geometry">
            <mxPoint x="585" y="210" as="sourcePoint" />
            <mxPoint x="635" y="160" as="targetPoint" />
          </mxGeometry>
        </mxCell>
        <mxCell id="elFsV576toSTreKgKbLv-66" value="&lt;font style=&quot;font-size: 14px&quot;&gt;HTTP&lt;/font&gt;" style="text;html=1;align=center;verticalAlign=middle;resizable=0;points=[];autosize=1;strokeColor=none;" vertex="1" parent="1">
          <mxGeometry x="560" y="240" width="50" height="20" as="geometry" />
        </mxCell>
        <mxCell id="elFsV576toSTreKgKbLv-67" value="&lt;font style=&quot;font-size: 14px&quot;&gt;HTTP&lt;/font&gt;" style="text;html=1;align=center;verticalAlign=middle;resizable=0;points=[];autosize=1;strokeColor=none;" vertex="1" parent="1">
          <mxGeometry x="190" y="240" width="50" height="20" as="geometry" />
        </mxCell>
        <mxCell id="elFsV576toSTreKgKbLv-71" value="" style="endArrow=classic;html=1;rounded=0;edgeStyle=orthogonalEdgeStyle;entryX=0.5;entryY=0;entryDx=0;entryDy=0;entryPerimeter=0;" edge="1" parent="1" target="elFsV576toSTreKgKbLv-4">
          <mxGeometry width="50" height="50" relative="1" as="geometry">
            <mxPoint x="560" y="220" as="sourcePoint" />
            <mxPoint x="411" y="270" as="targetPoint" />
          </mxGeometry>
        </mxCell>
        <mxCell id="elFsV576toSTreKgKbLv-72" value="" style="edgeStyle=elbowEdgeStyle;elbow=horizontal;endArrow=classic;html=1;rounded=0;entryX=0.5;entryY=0;entryDx=0;entryDy=0;" edge="1" parent="1" target="elFsV576toSTreKgKbLv-12">
          <mxGeometry width="50" height="50" relative="1" as="geometry">
            <mxPoint x="560" y="442" as="sourcePoint" />
            <mxPoint x="434" y="492" as="targetPoint" />
            <Array as="points">
              <mxPoint x="434" y="502" />
            </Array>
          </mxGeometry>
        </mxCell>
        <mxCell id="elFsV576toSTreKgKbLv-49" value="Region (ap-northeast-1a)" style="points=[[0,0],[0.25,0],[0.5,0],[0.75,0],[1,0],[1,0.25],[1,0.5],[1,0.75],[1,1],[0.75,1],[0.5,1],[0.25,1],[0,1],[0,0.75],[0,0.5],[0,0.25]];outlineConnect=0;gradientColor=none;html=1;whiteSpace=wrap;fontSize=12;fontStyle=0;shape=mxgraph.aws4.group;grIcon=mxgraph.aws4.group_region;strokeColor=#147EBA;fillColor=none;verticalAlign=top;align=left;spacingLeft=30;fontColor=#147EBA;dashed=1;" vertex="1" parent="1">
          <mxGeometry x="120" y="514" width="413" height="440" as="geometry" />
        </mxCell>
        <mxCell id="elFsV576toSTreKgKbLv-73" value="" style="endArrow=classic;html=1;rounded=0;edgeStyle=orthogonalEdgeStyle;entryX=0.5;entryY=0;entryDx=0;entryDy=0;" edge="1" parent="1" target="elFsV576toSTreKgKbLv-14">
          <mxGeometry width="50" height="50" relative="1" as="geometry">
            <mxPoint x="560" y="442" as="sourcePoint" />
            <mxPoint x="700" y="482" as="targetPoint" />
            <Array as="points">
              <mxPoint x="686" y="442" />
            </Array>
          </mxGeometry>
        </mxCell>
        <mxCell id="elFsV576toSTreKgKbLv-25" value="" style="rounded=0;whiteSpace=wrap;html=1;strokeColor=#FF3333;fillColor=none;" vertex="1" parent="1">
          <mxGeometry x="361" y="552" width="400" height="170" as="geometry" />
        </mxCell>
        <mxCell id="elFsV576toSTreKgKbLv-13" value="" style="group" vertex="1" connectable="0" parent="1">
          <mxGeometry x="369" y="572" width="130" height="130" as="geometry" />
        </mxCell>
        <mxCell id="elFsV576toSTreKgKbLv-12" value="Public subnet" style="points=[[0,0],[0.25,0],[0.5,0],[0.75,0],[1,0],[1,0.25],[1,0.5],[1,0.75],[1,1],[0.75,1],[0.5,1],[0.25,1],[0,1],[0,0.75],[0,0.5],[0,0.25]];outlineConnect=0;gradientColor=none;html=1;whiteSpace=wrap;fontSize=12;fontStyle=0;shape=mxgraph.aws4.group;grIcon=mxgraph.aws4.group_security_group;grStroke=0;strokeColor=#248814;fillColor=#E9F3E6;verticalAlign=top;align=left;spacingLeft=30;fontColor=#248814;dashed=0;" vertex="1" parent="elFsV576toSTreKgKbLv-13">
          <mxGeometry width="130" height="130" as="geometry" />
        </mxCell>
        <mxCell id="elFsV576toSTreKgKbLv-10" value="" style="points=[[0,0,0],[0.25,0,0],[0.5,0,0],[0.75,0,0],[1,0,0],[0,1,0],[0.25,1,0],[0.5,1,0],[0.75,1,0],[1,1,0],[0,0.25,0],[0,0.5,0],[0,0.75,0],[1,0.25,0],[1,0.5,0],[1,0.75,0]];outlineConnect=0;fontColor=#232F3E;gradientColor=#F78E04;gradientDirection=north;fillColor=#D05C17;strokeColor=#ffffff;dashed=0;verticalLabelPosition=bottom;verticalAlign=top;align=center;html=1;fontSize=12;fontStyle=0;aspect=fixed;shape=mxgraph.aws4.resourceIcon;resIcon=mxgraph.aws4.ec2;" vertex="1" parent="elFsV576toSTreKgKbLv-13">
          <mxGeometry x="26" y="26" width="78" height="78" as="geometry" />
        </mxCell>
        <mxCell id="elFsV576toSTreKgKbLv-20" value="&lt;font style=&quot;font-size: 14px&quot;&gt;10.0.0.0/24&lt;/font&gt;" style="text;html=1;align=center;verticalAlign=middle;resizable=0;points=[];autosize=1;strokeColor=none;" vertex="1" parent="elFsV576toSTreKgKbLv-13">
          <mxGeometry y="110" width="90" height="20" as="geometry" />
        </mxCell>
        <mxCell id="elFsV576toSTreKgKbLv-46" value="&lt;span style=&quot;font-size: 14px&quot;&gt;&lt;font color=&quot;#ff3333&quot;&gt;Security Group&lt;/font&gt;&lt;/span&gt;" style="text;html=1;align=center;verticalAlign=middle;resizable=0;points=[];autosize=1;strokeColor=none;" vertex="1" parent="1">
          <mxGeometry x="506" y="564" width="110" height="20" as="geometry" />
        </mxCell>
        <mxCell id="elFsV576toSTreKgKbLv-51" value="&lt;font color=&quot;#ffffff&quot;&gt;S3&lt;/font&gt;" style="text;html=1;align=center;verticalAlign=middle;resizable=0;points=[];autosize=1;strokeColor=none;" vertex="1" parent="1">
          <mxGeometry x="253" y="660" width="30" height="20" as="geometry" />
        </mxCell>
        <mxCell id="elFsV576toSTreKgKbLv-52" value="&lt;font color=&quot;#ffffff&quot;&gt;EC2&lt;/font&gt;" style="text;html=1;align=center;verticalAlign=middle;resizable=0;points=[];autosize=1;strokeColor=none;" vertex="1" parent="1">
          <mxGeometry x="439" y="659" width="40" height="20" as="geometry" />
        </mxCell>
        <mxCell id="elFsV576toSTreKgKbLv-4" value="" style="points=[[0,0,0],[0.25,0,0],[0.5,0,0],[0.75,0,0],[1,0,0],[0,1,0],[0.25,1,0],[0.5,1,0],[0.75,1,0],[1,1,0],[0,0.25,0],[0,0.5,0],[0,0.75,0],[1,0.25,0],[1,0.5,0],[1,0.75,0]];outlineConnect=0;fontColor=#232F3E;gradientColor=#60A337;gradientDirection=north;fillColor=#277116;strokeColor=#ffffff;dashed=0;verticalLabelPosition=bottom;verticalAlign=top;align=center;html=1;fontSize=12;fontStyle=0;aspect=fixed;shape=mxgraph.aws4.resourceIcon;resIcon=mxgraph.aws4.s3;" vertex="1" parent="1">
          <mxGeometry x="151" y="598" width="78" height="78" as="geometry" />
        </mxCell>
        <mxCell id="elFsV576toSTreKgKbLv-14" value="Public subnet" style="points=[[0,0],[0.25,0],[0.5,0],[0.75,0],[1,0],[1,0.25],[1,0.5],[1,0.75],[1,1],[0.75,1],[0.5,1],[0.25,1],[0,1],[0,0.75],[0,0.5],[0,0.25]];outlineConnect=0;gradientColor=none;html=1;whiteSpace=wrap;fontSize=12;fontStyle=0;shape=mxgraph.aws4.group;grIcon=mxgraph.aws4.group_security_group;grStroke=0;strokeColor=#248814;fillColor=#E9F3E6;verticalAlign=top;align=left;spacingLeft=30;fontColor=#248814;dashed=0;" vertex="1" parent="1">
          <mxGeometry x="621" y="572" width="130" height="130" as="geometry" />
        </mxCell>
        <mxCell id="elFsV576toSTreKgKbLv-21" value="&lt;font style=&quot;font-size: 14px&quot;&gt;10.0.1.0/24&lt;/font&gt;" style="text;html=1;align=center;verticalAlign=middle;resizable=0;points=[];autosize=1;strokeColor=none;" vertex="1" parent="1">
          <mxGeometry x="621" y="682" width="90" height="20" as="geometry" />
        </mxCell>
        <mxCell id="elFsV576toSTreKgKbLv-47" value="Region (ap-northeast-1c)" style="points=[[0,0],[0.25,0],[0.5,0],[0.75,0],[1,0],[1,0.25],[1,0.5],[1,0.75],[1,1],[0.75,1],[0.5,1],[0.25,1],[0,1],[0,0.75],[0,0.5],[0,0.25]];outlineConnect=0;gradientColor=none;html=1;whiteSpace=wrap;fontSize=12;fontStyle=0;shape=mxgraph.aws4.group;grIcon=mxgraph.aws4.group_region;strokeColor=#147EBA;fillColor=none;verticalAlign=top;align=left;spacingLeft=30;fontColor=#147EBA;dashed=1;" vertex="1" parent="1">
          <mxGeometry x="590" y="514" width="200" height="440" as="geometry" />
        </mxCell>
        <mxCell id="elFsV576toSTreKgKbLv-29" value="" style="group" vertex="1" connectable="0" parent="1">
          <mxGeometry x="620" y="774" width="130" height="130" as="geometry" />
        </mxCell>
        <mxCell id="elFsV576toSTreKgKbLv-19" value="Private subnet" style="points=[[0,0],[0.25,0],[0.5,0],[0.75,0],[1,0],[1,0.25],[1,0.5],[1,0.75],[1,1],[0.75,1],[0.5,1],[0.25,1],[0,1],[0,0.75],[0,0.5],[0,0.25]];outlineConnect=0;gradientColor=none;html=1;whiteSpace=wrap;fontSize=12;fontStyle=0;shape=mxgraph.aws4.group;grIcon=mxgraph.aws4.group_security_group;grStroke=0;strokeColor=#147EBA;fillColor=#E6F2F8;verticalAlign=top;align=left;spacingLeft=30;fontColor=#147EBA;dashed=0;" vertex="1" parent="elFsV576toSTreKgKbLv-29">
          <mxGeometry width="130" height="130" as="geometry" />
        </mxCell>
        <mxCell id="elFsV576toSTreKgKbLv-23" value="&lt;font style=&quot;font-size: 14px&quot;&gt;10.0.11.0/24&lt;/font&gt;" style="text;html=1;align=center;verticalAlign=middle;resizable=0;points=[];autosize=1;strokeColor=none;" vertex="1" parent="elFsV576toSTreKgKbLv-29">
          <mxGeometry y="110" width="90" height="20" as="geometry" />
        </mxCell>
        <mxCell id="elFsV576toSTreKgKbLv-30" value="" style="group" vertex="1" connectable="0" parent="1">
          <mxGeometry x="368" y="774" width="130" height="130" as="geometry" />
        </mxCell>
        <mxCell id="elFsV576toSTreKgKbLv-15" value="Private subnet" style="points=[[0,0],[0.25,0],[0.5,0],[0.75,0],[1,0],[1,0.25],[1,0.5],[1,0.75],[1,1],[0.75,1],[0.5,1],[0.25,1],[0,1],[0,0.75],[0,0.5],[0,0.25]];outlineConnect=0;gradientColor=none;html=1;whiteSpace=wrap;fontSize=12;fontStyle=0;shape=mxgraph.aws4.group;grIcon=mxgraph.aws4.group_security_group;grStroke=0;strokeColor=#147EBA;fillColor=#E6F2F8;verticalAlign=top;align=left;spacingLeft=30;fontColor=#147EBA;dashed=0;" vertex="1" parent="elFsV576toSTreKgKbLv-30">
          <mxGeometry width="130" height="130" as="geometry" />
        </mxCell>
        <mxCell id="elFsV576toSTreKgKbLv-11" value="" style="points=[[0,0,0],[0.25,0,0],[0.5,0,0],[0.75,0,0],[1,0,0],[0,1,0],[0.25,1,0],[0.5,1,0],[0.75,1,0],[1,1,0],[0,0.25,0],[0,0.5,0],[0,0.75,0],[1,0.25,0],[1,0.5,0],[1,0.75,0]];outlineConnect=0;fontColor=#232F3E;gradientColor=#4D72F3;gradientDirection=north;fillColor=#3334B9;strokeColor=#ffffff;dashed=0;verticalLabelPosition=bottom;verticalAlign=top;align=center;html=1;fontSize=12;fontStyle=0;aspect=fixed;shape=mxgraph.aws4.resourceIcon;resIcon=mxgraph.aws4.rds;" vertex="1" parent="elFsV576toSTreKgKbLv-30">
          <mxGeometry x="26" y="26" width="78" height="78" as="geometry" />
        </mxCell>
        <mxCell id="elFsV576toSTreKgKbLv-22" value="&lt;font style=&quot;font-size: 14px&quot;&gt;10.0.10.0/24&lt;/font&gt;" style="text;html=1;align=center;verticalAlign=middle;resizable=0;points=[];autosize=1;strokeColor=none;" vertex="1" parent="elFsV576toSTreKgKbLv-30">
          <mxGeometry y="110" width="90" height="20" as="geometry" />
        </mxCell>
        <mxCell id="elFsV576toSTreKgKbLv-45" value="&lt;span style=&quot;font-size: 14px&quot;&gt;&lt;font color=&quot;#ff3333&quot;&gt;Security Group&lt;/font&gt;&lt;/span&gt;" style="text;html=1;align=center;verticalAlign=middle;resizable=0;points=[];autosize=1;strokeColor=none;" vertex="1" parent="1">
          <mxGeometry x="505" y="761" width="110" height="20" as="geometry" />
        </mxCell>
        <mxCell id="elFsV576toSTreKgKbLv-53" value="&lt;font color=&quot;#ffffff&quot;&gt;RDS&lt;/font&gt;" style="text;html=1;align=center;verticalAlign=middle;resizable=0;points=[];autosize=1;strokeColor=none;" vertex="1" parent="1">
          <mxGeometry x="415" y="859" width="40" height="20" as="geometry" />
        </mxCell>
        <mxCell id="elFsV576toSTreKgKbLv-78" value="" style="endArrow=classic;html=1;rounded=0;edgeStyle=elbowEdgeStyle;exitX=0.75;exitY=1;exitDx=0;exitDy=0;exitPerimeter=0;entryX=0.75;entryY=0;entryDx=0;entryDy=0;entryPerimeter=0;" edge="1" parent="1" source="elFsV576toSTreKgKbLv-10" target="elFsV576toSTreKgKbLv-11">
          <mxGeometry width="50" height="50" relative="1" as="geometry">
            <mxPoint x="453.5" y="696" as="sourcePoint" />
            <mxPoint x="444" y="802" as="targetPoint" />
          </mxGeometry>
        </mxCell>
        <mxCell id="elFsV576toSTreKgKbLv-87" value="" style="line;strokeWidth=2;direction=south;html=1;fillColor=none;" vertex="1" parent="1">
          <mxGeometry x="556" y="396" width="10" height="44" as="geometry" />
        </mxCell>
        <mxCell id="elFsV576toSTreKgKbLv-88" value="&lt;font style=&quot;font-size: 14px&quot;&gt;HTTP&lt;/font&gt;" style="text;html=1;align=center;verticalAlign=middle;resizable=0;points=[];autosize=1;strokeColor=none;" vertex="1" parent="1">
          <mxGeometry x="565" y="414" width="50" height="20" as="geometry" />
        </mxCell>
        <mxCell id="elFsV576toSTreKgKbLv-89" value="" style="rounded=0;whiteSpace=wrap;html=1;strokeColor=#FF3333;fillColor=none;" vertex="1" parent="1">
          <mxGeometry x="490" y="290" width="140" height="120" as="geometry" />
        </mxCell>
        <mxCell id="elFsV576toSTreKgKbLv-90" value="&lt;span style=&quot;font-size: 14px&quot;&gt;&lt;font color=&quot;#ff3333&quot;&gt;Security Group&lt;/font&gt;&lt;/span&gt;" style="text;html=1;align=center;verticalAlign=middle;resizable=0;points=[];autosize=1;strokeColor=none;" vertex="1" parent="1">
          <mxGeometry x="505" y="290" width="110" height="20" as="geometry" />
        </mxCell>
        <mxCell id="elFsV576toSTreKgKbLv-91" value="&lt;font style=&quot;font-size: 14px&quot;&gt;ALB&lt;/font&gt;" style="text;html=1;align=center;verticalAlign=middle;resizable=0;points=[];autosize=1;strokeColor=none;" vertex="1" parent="1">
          <mxGeometry x="575" y="390" width="40" height="20" as="geometry" />
        </mxCell>
        <mxCell id="elFsV576toSTreKgKbLv-92" value="&lt;font style=&quot;font-size: 14px&quot; color=&quot;#ffffff&quot;&gt;Route53&lt;/font&gt;" style="text;html=1;align=center;verticalAlign=middle;resizable=0;points=[];autosize=1;strokeColor=none;" vertex="1" parent="1">
          <mxGeometry x="525" y="190" width="70" height="20" as="geometry" />
        </mxCell>
      </root>
    </mxGraphModel>
  </diagram>
</mxfile>
